<svg width="21" height="22" viewBox="0 0 21 22" fill="none" xmlns="http://www.w3.org/2000/svg">
<path d="M18.8333 11.5833C18.7602 11.5838 18.6877 11.5691 18.6201 11.54C18.5524 11.511 18.4908 11.4682 18.4389 11.4142L10.5 3.07249L2.56112 11.4142C2.45484 11.5097 2.31813 11.5597 2.17831 11.554C2.03849 11.5483 1.90586 11.4875 1.80691 11.3836C1.70797 11.2797 1.65001 11.1404 1.64461 10.9936C1.63921 10.8468 1.68677 10.7032 1.77778 10.5917L10.1111 1.84166C10.2152 1.73301 10.356 1.67203 10.5028 1.67203C10.6496 1.67203 10.7904 1.73301 10.8944 1.84166L19.2278 10.5917C19.3042 10.6735 19.356 10.7773 19.3766 10.8899C19.3972 11.0025 19.3858 11.119 19.3437 11.2248C19.3016 11.3306 19.2307 11.4211 19.14 11.4848C19.0492 11.5486 18.9425 11.5829 18.8333 11.5833Z" fill="white"/>
<path d="M10.5 5.04416L3.83333 12.0675V19.1667C3.83333 19.4761 3.95039 19.7728 4.15877 19.9916C4.36714 20.2104 4.64975 20.3333 4.94444 20.3333H8.83333V14.5H12.1667V20.3333H16.0555C16.3502 20.3333 16.6328 20.2104 16.8412 19.9916C17.0496 19.7728 17.1667 19.4761 17.1667 19.1667V12.0267L10.5 5.04416Z" fill="white"/>
</svg>
